<?xml version="1.0" encoding="UTF-8"?>
<!-- Copyright 2025 Morphe. This is copyrighted content, and not licensed under open source terms. See https://github.com/Morphe/morphe-branding -->
<svg
    width="516"
    height="192"
    viewBox="0 0 516 192"
    xmlns="http://www.w3.org/2000/svg">

    <defs>
        <linearGradient id="linearGradient2" x1="83" y1="216" x2="429" y2="216" gradientUnits="userSpaceOnUse">
            <stop offset="0" stop-color="#12437e"/>
            <stop offset="1" stop-color="#03cfcc"/>
        </linearGradient>
    </defs>

    <!-- Letter -->
    <g id="Letter" transform="matrix(0.3,0,0,0.3,25.1,7.6)">
        <path
            id="Left"
            d="M123,140 c-21,0 -39,17 -40,38 v192 c1,21 19,38 40,38 21,0 39,-17 40,-38 V178 c-1,-21 -19,-38 -40,-38 z"
            fill="#12437e"/>
        <path
            id="Right"
            d="M349,285 v85 c1,21 19,38 40,38 21,0 39,-17 40,-38 V182 c-11,-14 -74,63 -80,103 z"
            fill="#03cfcc"/>
        <path
            id="Middle"
            d="M127,108 c-34,0 -44,25 -44,40 v54 c30,-33 75,27 80,33 28,32 44,87 93,89 48,-2 67,-56 93,-89 0,0 45,-74 80,-80 0,-28 -11,-47 -44,-47 -34,0 -58,50 -75,72 -17,22 -25,46 -54,46 -29,0 -38,-25 -54,-46 -17,-22 -41,-72 -75,-72 z"
            fill="url(#linearGradient2)"/>
    </g>

    <!-- Text -->
    <g id="Text" transform="matrix(2.6689326,0,0,2.6689326,164.01434,41.050282)">
        <path
            id="Morphe"
            d="M12.226406,33.247668 q -2.9299969,0 -5.1727104,-1.266048 -2.2427134,-1.302221 -3.5449342,-3.544934 -1.2660479,-2.278887 -1.2660479,-5.208883 0,-2.96617 1.2660479,-5.208883 1.3022208,-2.278887 3.5449342,-3.544934 2.2427135,-1.302221 5.1727104,-1.302221 2.893824,0 5.136537,1.302221 2.242714,1.266047 3.508762,3.544934 1.30222,2.242713 1.30222,5.208883 0,2.929996 -1.266048,5.208883 -1.266048,2.242713 -3.508761,3.544934 -2.242714,1.266048 -5.17271,1.266048 z m 0,-3.255552 q 1.880985,0 3.327897,-0.868147 1.446912,-0.868147 2.242714,-2.387405 0.831974,-1.519257 0.831974,-3.508761 0,-1.989504 -0.831974,-3.508762 -0.795802,-1.55543 -2.242714,-2.423577 -1.446912,-0.868147 -3.327897,-0.868147 -1.880986,0 -3.3278977,0.868147 -1.4469119,0.868147 -2.2788862,2.423577 -0.8319744,1.519258 -0.8319744,3.508762 0,1.989504 0.8319744,3.508761 0.8319743,1.519258 2.2788862,2.387405 1.4469117,0.868147 3.3278977,0.868147 z M 29.44463,20.73188 q 0,-2.170368 1.049011,-3.87049 1.085184,-1.736294 2.893824,-2.749132 1.80864,-1.012839 3.979007,-1.012839 2.170368,0 3.219379,0.723456 1.085184,0.687283 0.831975,1.663949 -0.108519,0.506419 -0.434074,0.795801 -0.289382,0.25321 -0.687283,0.325556 -0.397901,0.07235 -0.868147,-0.03617 -2.315059,-0.470247 -4.159872,-0.07235 -1.844813,0.397901 -2.929996,1.483085 -1.049012,1.085184 -1.049012,2.749133 z m 0.03617,12.371097 q -0.868147,0 -1.338393,-0.434074 -0.470246,-0.470246 -0.470246,-1.374566 V 15.125096 q 0,-0.868147 0.470246,-1.338394 0.470246,-0.470246 1.338393,-0.470246 0.90432,0 1.338394,0.470246 0.470246,0.434074 0.470246,1.338394 v 16.169241 q 0,0.868147 -0.470246,1.338393 -0.434074,0.470247 -1.338394,0.470247 z m 17.616156,8.464434 q -0.795802,0 -1.338394,-0.542592 -0.506419,-0.506419 -0.506419,-1.30222 V 23.227803 q 0.03617,-2.857651 1.338394,-5.136538 1.302221,-2.278886 3.544934,-3.581107 2.242714,-1.338393 5.064192,-1.338393 2.857651,0 5.100364,1.338393 2.242714,1.302221 3.544935,3.581107 1.338393,2.278887 1.338393,5.136538 0,2.857651 -1.229875,5.136537 -1.193702,2.242714 -3.291725,3.581107 -2.098022,1.302221 -4.738636,1.302221 -2.134195,0 -3.942835,-0.868147 -1.772467,-0.90432 -3.038515,-2.423578 v 9.766656 q 0,0.795801 -0.506419,1.30222 -0.50642,0.542592 -1.338394,0.542592 z m 8.102707,-11.575295 q 1.844813,0 3.291724,-0.868147 1.446912,-0.90432 2.278887,-2.423578 0.868147,-1.55543 0.868147,-3.472588 0,-1.953331 -0.868147,-3.472589 -0.831975,-1.55543 -2.278887,-2.423577 -1.446911,-0.90432 -3.291724,-0.90432 -1.80864,0 -3.291725,0.90432 -1.446912,0.868147 -2.278886,2.423577 -0.831974,1.519258 -0.831974,3.472589 0,1.917158 0.831974,3.472588 0.831974,1.519258 2.278886,2.423578 1.483085,0.868147 3.291725,0.868147 z m 17.32674,-4.087526 q -0.795801,0 -1.338393,-0.506419 -0.50642,-0.542592 -0.50642,-1.338394 V 6.696834 q 0,-0.8319744 0.50642,-1.3383936 0.542592,-0.5064192 1.338393,-0.5064192 0.831975,0 1.338394,0.5064192 0.506419,0.5064192 0.506419,1.3383936 v 17.362943 q 0,0.795802 -0.506419,1.338394 -0.506419,0.506419 -1.338394,0.506419 z m 14.86702,7.234559 q -0.795801,0 -1.338393,-0.506419 -0.506419,-0.542592 -0.506419,-1.338393 v -8.898509 q 0,-2.061849 -0.759629,-3.36407 -0.759629,-1.302221 -2.06185,-1.917158 -1.266048,-0.651111 -2.929996,-0.651111 -1.519258,0 -2.749133,0.614938 -1.229875,0.614938 -1.953331,1.663949 -0.723456,1.012838 -0.723456,2.351232 h -2.278886 q 0,-2.278887 1.085184,-4.051354 1.121356,-1.80864 3.038515,-2.857651 1.917158,-1.049011 4.304563,-1.049011 2.495923,0 4.449254,1.085184 1.989504,1.049011 3.11086,3.110861 1.15753,2.061849 1.15753,5.064191 v 8.898509 q 0,0.795801 -0.542592,1.338393 -0.506419,0.506419 -1.302221,0.506419 z m -14.86702,0 q -0.795801,0 -1.338393,-0.506419 -0.50642,-0.542592 -0.50642,-1.338393 V 15.161269 q 0,-0.831975 0.50642,-1.338394 0.542592,-0.506419 1.338393,-0.506419 0.831975,0 1.338394,0.506419 0.506419,0.506419 0.506419,1.338394 v 16.133068 q 0,0.795801 -0.506419,1.338393 -0.506419,0.506419 -1.338394,0.506419 z m 32.157635,0.108519 q -3.00234,0 -5.353573,-1.266048 -2.315059,-1.302221 -3.653453,-3.544934 -1.30222,-2.278887 -1.30222,-5.208883 0,-2.96617 1.229875,-5.208883 1.266048,-2.278887 3.472588,-3.544934 2.206543,-1.302221 5.064193,-1.302221 2.82148,0 4.84715,1.266048 2.02568,1.229875 3.07469,3.436416 1.08519,2.170367 1.08519,5.028019 0,0.687283 -0.47025,1.157529 -0.47025,0.434074 -1.1937,0.434074 H 96.906889 v -2.893824 h 14.469121 l -1.48309,1.012838 q -0.0362,-1.80864 -0.72345,-3.219379 -0.68729,-1.446912 -1.95333,-2.278886 -1.26605,-0.831975 -3.07469,-0.831975 -2.06185,0 -3.54494,0.90432 -1.446907,0.90432 -2.206536,2.495923 -0.759629,1.555431 -0.759629,3.544935 0,1.989504 0.90432,3.544934 0.90432,1.55543 2.495925,2.45975 1.5916,0.90432 3.65345,0.90432 1.12136,0 2.27889,-0.397901 1.1937,-0.434073 1.91716,-0.976665 0.54259,-0.397901 1.15753,-0.397901 0.65111,-0.03617 1.12135,0.361728 0.61494,0.542592 0.65111,1.193702 0.0362,0.651111 -0.57876,1.121357 -1.22988,0.976666 -3.07469,1.591603 -1.80864,0.614938 -3.47259,0.614938 z"
            fill="#000000"/>
    </g>
</svg>
